<?xml version="1.0" standalone="no"?>
<!DOCTYPE svg PUBLIC "-//W3C//DTD SVG 1.1//EN" "http://www.w3.org/Graphics/SVG/1.1/DTD/svg11.dtd" >
<svg xmlns="http://www.w3.org/2000/svg" xmlns:xlink="http://www.w3.org/1999/xlink" version="1.1">
<metadata></metadata>
<defs>
<font id="ticking_timebomb_bbregular" horiz-adv-x="962" >
<font-face units-per-em="2048" ascent="1536" descent="-512" />
<missing-glyph horiz-adv-x="526" />
<glyph unicode="&#x28;C&#x29;" horiz-adv-x="1568" d="M102 184l78 -86l78 86v387l-78 80l-78 -80v-387zM102 776l78 -80l78 80v385l-78 86l-78 -86v-385zM209 1270l82 -78h387l74 78l-74 78h-387zM211 78l74 -78h387l82 76l-82 80h-387zM432 475l76 -80l80 80v387l-78 86l-78 -86v-387zM535 377l79 -80h387l84 78l-84 78h-387 zM537 971l81 -80h388l75 78l-75 78h-388zM813 78l76 -78h387l82 76l-82 80h-387zM813 1270l82 78h385l76 -78l-76 -78h-385zM1309 184l75 -86l80 86v387l-78 80l-77 -80v-387zM1309 776l75 -80l80 80v385l-78 86l-77 -86v-385z" />
<glyph unicode="&#x28;R&#x29;" horiz-adv-x="675" d="M102 946l27 -28l27 28v133l-27 29l-27 -29v-133zM102 1151l27 -29l27 29v133l-27 29l-27 -29v-133zM139 909l27 -26h133l29 26l-29 27h-133zM139 1321l29 27h133l25 -27l-25 -27h-133zM256 981l18 -18l17 18v109l-17 18l-18 -18v-109zM258 1135l16 -17l17 17v86l-17 20 l-16 14v-120zM262 1262l19 -17l18 -16h86l16 16l-16 17h-123zM281 1114l16 -18h86l20 16l-20 18h-86zM301 1061l94 -94l27 -2l-2 26l-94 94l-25 2v-26zM348 909l25 -26h135l27 26l-27 27h-135zM348 1321l27 -27h133l27 27l-27 27h-133zM391 1135l17 -17l18 17v86l-18 20 l-17 -20v-86zM518 946l27 -28l26 28v133l-26 29l-27 -29v-133zM518 1151l27 -29l26 29v133l-26 29l-27 -29v-133z" />
<glyph horiz-adv-x="0" />
<glyph unicode="&#xd;" horiz-adv-x="526" />
<glyph horiz-adv-x="0" />
<glyph horiz-adv-x="0" />
<glyph unicode=" "  horiz-adv-x="526" />
<glyph unicode="&#x09;" horiz-adv-x="526" />
<glyph unicode="&#xa0;" horiz-adv-x="526" />
<glyph unicode="!" horiz-adv-x="362" d="M104 399v871l78 80l80 -80v-871l-78 -86zM106 0h154v156h-154v-156z" />
<glyph unicode="&#x22;" horiz-adv-x="675" d="M100 782v488l76 80l80 -80v-488l-78 -86zM418 782l80 -86l75 86v488l-77 80l-78 -80v-488z" />
<glyph unicode="#" horiz-adv-x="1488" d="M49 434l82 76l188 -4l-2 -156l-188 4zM49 961l82 75l188 -4l-2 -155l-188 4zM371 84v487l78 80l77 -80v-487l-80 -86zM371 780v490l75 80l80 -80v-490l-77 -86zM575 434l84 76l189 -4l74 -80l-76 -76l-189 4zM575 961l84 75l189 -4l74 -80l-76 -75l-189 4zM973 84v487 l78 80l77 -80v-487l-79 -86zM973 780v490l76 80l79 -80v-490l-77 -86zM1174 354l2 156l190 -4l74 -80l-76 -76zM1174 881l2 155l190 -4l74 -80l-76 -75z" />
<glyph unicode="$" horiz-adv-x="890" d="M61 776v385l78 86l80 -86v-385l-78 -80zM92 76l82 80h463l76 -78l-76 -78h-463zM166 672l80 78h385l86 -78l-86 -78h-385zM170 1270l76 78h465l82 -78l-82 -78h-465zM375 -37h155v-194l-77 -80l-78 80v194zM375 1386v197l78 78l77 -78v-197h-155zM664 186v385l77 80 l78 -80v-385l-76 -86z" />
<glyph unicode="%" horiz-adv-x="1929" d="M59 776v387l80 86l76 -86v-387l-78 -80zM162 678l80 76h387l86 -78l-86 -78h-387zM166 1272l82 76h387l74 -78l-74 -78h-387zM662 776v387l77 86l78 -86v-387l-80 -80zM672 94l194 514l103 45l43 -102l-195 -512l-104 -51zM942 803l199 508l102 47l43 -103l-199 -507 l-102 -54zM1110 186v387l80 78l76 -78v-387l-78 -86zM1214 678l78 76h387l86 -78l-86 -78h-387zM1219 80l73 76h387l82 -78l-82 -78h-387zM1712 186v387l78 78l78 -78v-387l-78 -86z" />
<glyph unicode="&#x26;" horiz-adv-x="876" d="M78 186v385l78 80l77 -80v-385l-77 -86zM78 776v385l78 86l77 -86v-385l-77 -80zM180 672l86 78h459l80 -78l-80 -78h-459zM184 78l76 78h461l82 -80l-82 -76h-461zM184 1270l82 78h459l76 -78l-76 -78h-459zM395 -37h156v-194l-78 -80l-78 80v194zM395 1386v197l78 78 l78 -78v-197h-156z" />
<glyph unicode="'" horiz-adv-x="370" d="M100 782v488l76 80l80 -80v-488l-78 -86z" />
<glyph unicode="(" horiz-adv-x="497" d="M82 84v487l78 80l78 -80v-487l-80 -86zM82 780v490l76 80l80 -80v-490l-78 -86zM164 -35l108 31l158 -86l39 -109l-113 -26l-157 86zM164 1376l35 107l157 86l113 -29l-39 -108l-158 -86z" />
<glyph unicode=")" horiz-adv-x="516" d="M35 -199l112 -26l160 86l33 104l-109 31l-157 -86zM35 1540l112 29l160 -86l33 -107l-109 -30l-157 86zM266 72l80 -80l76 80v489l-78 86l-78 -86v-489zM266 770l78 -80l78 80v490l-76 86l-80 -86v-490z" />
<glyph unicode="*" horiz-adv-x="894" d="M37 1087l110 41l193 -81l43 -103l-104 -41l-193 80zM178 696l123 168l113 27l12 -117l-121 -170l-108 -18zM371 1055l2 211l80 84l75 -86l-2 -211l-80 -78zM469 774l14 117l113 -27l121 -168l-17 -110l-108 18zM512 944l45 103l193 81l108 -41l-49 -104l-193 -80z" />
<glyph unicode="+" horiz-adv-x="747" d="M18 676l80 78h162l86 -80l-86 -76h-162zM293 406v163l78 86l78 -86v-163l-80 -78zM293 788v164l78 86l78 -86v-164l-80 -79zM399 676l80 78h164l86 -80l-86 -76h-164z" />
<glyph unicode="," horiz-adv-x="387" d="M43 -84l160 352l104 41l39 -104l-162 -352l-106 -46z" />
<glyph unicode="-" horiz-adv-x="630" d="M43 676l80 78h387l86 -80l-86 -76h-387z" />
<glyph unicode="." horiz-adv-x="385" d="M117 0v156h155v-156h-155z" />
<glyph unicode="/" horiz-adv-x="665" d="M27 94l194 514l103 45l43 -102l-195 -512l-104 -51zM297 803l199 508l100 47l45 -103l-199 -507l-104 -54z" />
<glyph unicode="0" horiz-adv-x="956" d="M104 184v387l78 80l78 -80v-387l-80 -86zM104 776v385l78 86l78 -86v-385l-80 -80zM211 78l76 78h387l82 -80l-82 -76h-387zM211 1270l82 78h385l76 -78l-76 -78h-385zM705 184v387l79 80l76 -80v-387l-78 -86zM705 776v385l79 86l76 -86v-385l-78 -80z" />
<glyph unicode="1" horiz-adv-x="391" d="M113 84v487l80 80l75 -80v-487l-78 -86zM113 780v490l77 80l78 -80v-490l-75 -86z" />
<glyph unicode="2" horiz-adv-x="927" d="M90 18v553l78 80l78 -80v-385l-78 -86zM109 1270l81 78h474l75 -78l-75 -78h-474zM123 0l74 78l75 78h465l82 -80l-82 -76h-614zM193 676l79 78h387l86 -80l-86 -76h-387zM692 776v385l78 86l78 -86v-385l-80 -80z" />
<glyph unicode="3" horiz-adv-x="894" d="M72 676l80 78h458l86 -80l-86 -76h-458zM74 1270l82 78h460l74 -78l-74 -78h-460zM76 78l76 78h458l82 -80l-82 -76h-458zM643 186v385l78 80l78 -80v-385l-80 -86zM643 776v385l78 86l78 -86v-385l-80 -80z" />
<glyph unicode="4" horiz-adv-x="923" d="M78 774l76 -80l79 80v488l-77 86l-78 -86v-488zM178 676l80 -78h387l86 76l-86 80h-387zM678 74l76 -80l80 80v489l-78 86l-78 -86v-489zM678 774v488l80 86l76 -86v-488l-78 -80z" />
<glyph unicode="5" horiz-adv-x="933" d="M90 776v553l78 -82l78 -86v-385l-76 -80zM109 76l81 80h476l73 -78l-73 -78h-476zM125 1348h614l82 -78l-82 -78h-467l-73 78zM195 672l77 78h387l86 -78l-86 -78h-387zM692 186v385l78 80l78 -80v-385l-78 -86z" />
<glyph unicode="6" horiz-adv-x="946" d="M100 186v385l78 80l78 -80v-385l-78 -86zM100 776v385l78 86l78 -86v-385l-80 -80zM203 676l80 78h387l86 -80l-86 -76h-387zM207 78l76 78h387l82 -80l-82 -76h-387zM207 1270l82 78h450l76 -78l-76 -78h-450zM702 186v385l78 80l78 -80v-385l-80 -86z" />
<glyph unicode="7" horiz-adv-x="837" d="M39 1270l82 78h606l-86 -78l-76 -78h-444zM594 90v481l78 80l78 -80v-481l-80 -86zM594 776v385l78 86l78 72v-543l-80 -80z" />
<glyph unicode="8" horiz-adv-x="954" d="M98 186v385l80 80l76 -80v-385l-78 -86zM98 776v385l80 86l76 -86v-385l-78 -80zM203 676l80 78h385l86 -80l-86 -76h-385zM205 1270l82 78h387l76 -78l-76 -78h-387zM207 78l76 78h385l82 -80l-82 -76h-385zM700 186v385l80 80l76 -80v-385l-78 -86zM700 776v385l80 86 l76 -86v-385l-78 -80z" />
<glyph unicode="9" horiz-adv-x="919" d="M82 776v385l78 86l78 -86v-385l-80 -80zM123 78l76 78h452l82 -80l-82 -76h-452zM184 672l84 78h387l80 -78l-80 -78h-387zM186 1270l82 78h387l76 -78l-76 -78h-387zM682 184v387l80 80l76 -80v-387l-78 -84zM682 776v385l80 86l76 -86v-385l-78 -80z" />
<glyph unicode=":" horiz-adv-x="370" d="M106 352v154h156v-154h-156zM106 844v155h156v-155h-156z" />
<glyph unicode=";" horiz-adv-x="413" d="M43 -84l160 352l104 41l39 -104l-162 -352l-106 -46zM193 442v156h155v-156h-155z" />
<glyph unicode="&#x3c;" horiz-adv-x="565" d="M57 537l320 -506l110 -33l21 115l-320 508l-106 26zM57 813l320 506l106 27l25 -109l-320 -508l-110 -31z" />
<glyph unicode="=" horiz-adv-x="659" d="M59 526l80 78h385l86 -80l-86 -78h-385zM59 836l80 75h385l86 -77l-86 -78h-385z" />
<glyph unicode="&#x3e;" horiz-adv-x="569" d="M57 109l25 -111l108 27l320 507l-23 115l-110 -33zM57 1231l21 115l112 -31l320 -508l-25 -109l-108 27z" />
<glyph unicode="?" horiz-adv-x="899" d="M76 0v156h153v-156h-153zM76 403v168l78 80l77 -80v-168l-79 -86zM86 1270l82 78h481l76 -78l-76 -78h-481zM178 676l80 78h387l86 -80l-86 -76h-387zM676 776v385l80 86l75 -86v-385l-77 -80z" />
<glyph unicode="@" horiz-adv-x="1568" d="M102 184v387l80 80l76 -80v-387l-78 -86zM102 776v385l80 86l76 -86v-385l-78 -80zM209 1270l82 78h387l74 -78l-74 -78h-387zM211 78l74 78h387l82 -80l-82 -76h-387zM408 475v387l79 86l76 -86v-387l-78 -80zM512 377l80 76h385l86 -78l-86 -78h-385zM514 971l82 76 h387l76 -78l-76 -78h-387zM813 1270l82 78h387l74 -78l-74 -78h-387zM1006 182v94l77 82l78 -82v-94l-78 -76zM1010 475v387l77 86l78 -86v-387l-78 -80zM1106 78l76 78h94l82 -80l-82 -76h-94zM1309 184v387l77 80l78 -80v-387l-80 -86zM1309 776v385l77 86l78 -86v-385 l-80 -80z" />
<glyph unicode="A" horiz-adv-x="956" d="M109 84v489l79 78l76 -78v-489l-78 -86zM109 776v387l79 86l76 -86v-387l-78 -80zM213 678l80 76h385l86 -78l-86 -78h-385zM215 1272l82 76h387l76 -78l-76 -78h-387zM711 84v489l77 78l78 -78v-489l-78 -86zM711 776v387l77 86l78 -86v-387l-78 -80z" />
<glyph unicode="B" horiz-adv-x="958" d="M100 20v553l80 78l76 -78v-387zM100 776v543l156 -156v-387l-78 -80zM123 1348h553l74 -78l-74 -78h-387zM133 0l150 156h387l82 -78l-82 -78h-537zM205 678l78 76h387l86 -78l-86 -78h-387zM702 186v387l78 78l78 -78v-387l-78 -86zM702 776v387l78 86l78 -86v-387 l-78 -80z" />
<glyph unicode="C" horiz-adv-x="950" d="M109 186v387l77 78l78 -78v-387l-80 -86zM109 776v387l77 86l78 -86v-387l-80 -80zM213 1272l82 76h387l76 -78l-76 -78h-387zM215 80l76 76h463l82 -78l-82 -78h-463zM709 776v387l79 86l76 -86v-387l-78 -80z" />
<glyph unicode="D" horiz-adv-x="974" d="M115 20v553l78 78l77 -78v-387zM115 776v543l155 -156v-387l-80 -80zM137 1348h551l76 -78l-76 -78h-385zM147 0l150 156h387l82 -78l-82 -78h-537zM717 186v387l78 78l77 -78v-387l-79 -86zM717 776v387l78 86l77 -86v-387l-79 -80z" />
<glyph unicode="E" horiz-adv-x="860" d="M115 20v553l80 78l75 -78v-387zM115 776v543l155 -156v-387l-77 -80zM137 1348h553l76 -78l-76 -78h-387zM147 0l152 156h385l82 -78l-82 -78h-537zM219 678l80 76h385l86 -78l-86 -78h-385z" />
<glyph unicode="F" horiz-adv-x="827" d="M123 84v489l78 78l78 -78v-489l-80 -86zM123 776v543l156 -156v-387l-80 -80zM143 1348h553l76 -78l-76 -78h-387zM225 678l80 76h385l86 -78l-86 -78h-385z" />
<glyph unicode="G" horiz-adv-x="956" d="M109 186v387l75 78l80 -78v-387l-78 -86zM109 776v387l75 86l80 -86v-387l-78 -80zM215 78l82 78h385l76 -76l-76 -80h-385zM215 1270l76 78h463l82 -76l-82 -80h-463zM711 186v387l75 78l80 -78v-387l-78 -86z" />
<glyph unicode="H" horiz-adv-x="964" d="M106 84v489l78 78l78 -78v-489l-78 -86zM106 782v488l76 80l80 -80v-488l-78 -86zM209 678l80 76h387l86 -78l-86 -78h-387zM709 84v489l77 78l78 -78v-489l-80 -86zM709 782v488l75 80l80 -80v-488l-78 -86z" />
<glyph unicode="I" horiz-adv-x="378" d="M113 84v487l80 80l75 -80v-487l-78 -86zM113 780v490l77 80l78 -80v-490l-75 -86z" />
<glyph unicode="J" horiz-adv-x="944" d="M80 184v387l80 80l76 -80v-387l-78 -86zM188 78l76 78h385l82 -80l-82 -76h-385zM682 184v387l80 80l76 -80v-387l-78 -86zM686 780v490l76 80l80 -80v-490l-78 -86z" />
<glyph unicode="K" horiz-adv-x="933" d="M106 84v487l80 80l78 -80v-487l-80 -86zM106 780v490l78 80l80 -80v-490l-78 -86zM330 805l407 532l111 19l14 -111l-407 -532l-115 -23zM334 549l8 115l115 -21l411 -530l-12 -109l-111 14z" />
<glyph unicode="L" horiz-adv-x="794" d="M102 20v551l78 80l78 -80v-387zM102 780v490l76 80l80 -80v-490l-78 -86zM135 0l152 156h385l82 -80l-82 -76h-537z" />
<glyph unicode="M" horiz-adv-x="956" d="M98 776v385l80 86l76 -86v-385l-78 -80zM100 84v487l78 80l78 -80v-487l-80 -86zM205 1270l82 78h387l74 -78l-74 -78h-387zM399 758v387h156v-387l-78 -80zM700 84v487l80 80l76 -80v-487l-78 -86zM700 776v385l78 86l78 -86v-385l-78 -80z" />
<glyph unicode="N" horiz-adv-x="964" d="M102 84v487l78 80l78 -80v-487l-78 -86zM102 780v490l76 80l80 -80v-490l-78 -86zM289 1174l37 106l102 -39l234 -498l-35 -112l-107 45zM705 84v487l77 80l78 -80v-487l-80 -86zM705 780v490l75 80l80 -80v-490l-78 -86z" />
<glyph unicode="O" horiz-adv-x="948" d="M96 184v387l78 80l78 -80v-387l-80 -86zM96 776v385l78 86l78 -86v-385l-80 -80zM203 78l76 78h387l82 -80l-82 -76h-387zM203 1270l82 78h385l75 -78l-75 -78h-385zM696 184v387l80 80l76 -80v-387l-78 -86zM696 776v385l80 86l76 -86v-385l-78 -80z" />
<glyph unicode="P" horiz-adv-x="933" d="M111 84v487l77 80l78 -80v-487l-80 -86zM111 776v541l79 -70l76 -86v-385l-78 -80zM133 1348h553l76 -78l-76 -78h-387l-82 78zM215 676l80 78h385l86 -80l-86 -76h-385zM713 776v385l80 86l75 -86v-385l-77 -80z" />
<glyph unicode="Q" horiz-adv-x="946" d="M94 184v387l78 80l78 -80v-387l-80 -86zM94 776v385l78 86l78 -86v-385l-80 -80zM201 78l75 78h388l81 -80l-81 -76h-388zM201 1270l82 78h385l75 -78l-75 -78h-385zM395 201v387l78 80l78 -80v-387h-156zM694 184v387l80 80l76 -80v-387l-78 -86zM694 776v385l80 86 l76 -86v-385l-78 -80z" />
<glyph unicode="R" horiz-adv-x="952" d="M96 84v487l80 80l78 -80v-487l-80 -86zM98 776v541l156 -156v-385l-78 -80zM121 1348h553l76 -78l-76 -78h-387zM203 676l80 78h385l86 -80l-86 -76h-385zM295 442v113l111 -2l430 -428l4 -117l-115 8zM700 776v385l78 86l78 -86v-385l-78 -80z" />
<glyph unicode="S" horiz-adv-x="907" d="M74 776v385l78 86l77 -86v-385l-75 -80zM104 76l82 80h463l76 -78l-76 -78h-463zM178 670l80 80h385l86 -78l-86 -78h-385zM182 1270l76 78h465l82 -78l-82 -78h-465zM676 184v387l78 80l77 -80v-387l-75 -86z" />
<glyph unicode="T" horiz-adv-x="794" d="M18 1274l80 80h590l86 -78l-86 -78h-590zM309 84v487l80 80l76 -80v-487l-78 -86zM309 766v387h156v-387l-76 -80z" />
<glyph unicode="U" d="M100 182v387l80 80l76 -80v-387l-78 -86zM104 772v490l78 86l78 -86v-490l-80 -78zM209 76l76 78h385l82 -80l-82 -76h-385zM702 182v387l80 80l76 -80v-387l-78 -86zM707 772v490l77 86l78 -86v-490l-80 -78z" />
<glyph unicode="V" horiz-adv-x="937" d="M98 84v487l78 80l78 -80v-487l-80 -86zM98 772v490l80 86l76 -86v-490l-78 -78zM297 94l2 115l395 428l113 4l2 -111l-395 -426zM700 772v490l80 86l76 -86v-490l-78 -78z" />
<glyph unicode="W" horiz-adv-x="958" d="M100 774v488l80 86l76 -86v-488l-78 -80zM102 182v387l78 80l78 -80v-387l-80 -86zM209 76l76 78h387l82 -80l-82 -76h-387zM401 201v387l80 80l76 -80v-387h-156zM702 182v387l80 80l76 -80v-387l-78 -86zM702 774v488l80 86l76 -86v-488l-78 -80z" />
<glyph unicode="X" horiz-adv-x="866" d="M70 102l45 -102l102 51l189 508l-48 98l-100 -47zM70 1257l47 99l100 -47l189 -500l-46 -102l-102 53zM479 553l189 -506l100 -47l47 98l-188 506l-103 53zM479 805l47 -98l99 47l190 499l-45 103l-102 -53z" />
<glyph unicode="Y" horiz-adv-x="931" d="M86 774l78 -80l78 80v488l-78 86l-78 -86v-488zM127 78l76 -78h450l82 76l-82 80h-450zM188 676l78 -78h387l86 76l-86 80h-387zM686 186l78 -86l78 86v385l-78 80l-78 -80v-385zM688 774v488l78 86l78 -86v-488l-80 -80z" />
<glyph unicode="Z" horiz-adv-x="845" d="M45 78l80 -78h588l86 78l-86 78h-588zM45 1276l80 78h588l86 -78l-86 -78h-588zM109 307l28 -112l109 38l172 320l-31 106l-106 -32zM373 803l28 -111l109 39l172 320l-31 106l-106 -35z" />
<glyph unicode="[" horiz-adv-x="708" d="M86 84l78 -86l78 86v487l-78 80l-78 -80v-487zM86 780l78 -86l78 86v490l-78 80l-78 -80v-490zM190 -78l80 -78h320l86 76l-86 80h-320zM190 1425l80 78h320l86 -80l-86 -75h-320z" />
<glyph unicode="\" horiz-adv-x="679" d="M35 1255l45 103l100 -47l199 -508l-41 -109l-102 54zM309 551l43 102l103 -45l196 -514l-41 -106l-104 51z" />
<glyph unicode="]" horiz-adv-x="745" d="M43 -78l86 -78h320l79 76l-79 80h-320zM43 1425l86 78h320l79 -80l-79 -75h-320zM477 78l80 -80l76 80v487l-78 86l-78 -86v-487zM477 776l78 -80l78 80v488l-76 86l-80 -86v-488z" />
<glyph unicode="^" horiz-adv-x="882" d="M72 1028l10 113l233 207l109 -11l-4 -106l-236 -207zM453 1337l4 -106l237 -211l115 6l-10 111l-238 211z" />
<glyph unicode="_" horiz-adv-x="923" d="M41 78l76 78h678l82 -80l-82 -76h-678z" />
<glyph unicode="`" horiz-adv-x="507" d="M45 1339l113 7l295 -252l6 -109l-107 -8l-295 250z" />
<glyph unicode="a" horiz-adv-x="974" d="M109 84v489l79 78l76 -78v-489l-78 -86zM109 776v387l79 86l76 -86v-387l-78 -80zM213 678l80 76h385l86 -78l-86 -78h-385zM215 1272l82 76h387l76 -78l-76 -78h-387zM711 84v489l77 78l78 -78v-489l-78 -86zM711 776v387l77 86l78 -86v-387l-78 -80z" />
<glyph unicode="b" d="M100 20v553l80 78l76 -78v-387zM100 776v543l156 -156v-387l-78 -80zM123 1348h553l74 -78l-74 -78h-387zM133 0l150 156h387l82 -78l-82 -78h-537zM205 678l78 76h387l86 -78l-86 -78h-387zM702 186v387l78 78l78 -78v-387l-78 -86zM702 776v387l78 86l78 -86v-387 l-78 -80z" />
<glyph unicode="c" horiz-adv-x="954" d="M109 186v387l77 78l78 -78v-387l-80 -86zM109 776v387l77 86l78 -86v-387l-80 -80zM213 1272l82 76h387l76 -78l-76 -78h-387zM215 80l76 76h463l82 -78l-82 -78h-463zM709 776v387l79 86l76 -86v-387l-78 -80z" />
<glyph unicode="d" horiz-adv-x="980" d="M115 20v553l78 78l77 -78v-387zM115 776v543l155 -156v-387l-80 -80zM137 1348h551l76 -78l-76 -78h-385zM147 0l150 156h387l82 -78l-82 -78h-537zM717 186v387l78 78l77 -78v-387l-79 -86zM717 776v387l78 86l77 -86v-387l-79 -80z" />
<glyph unicode="e" horiz-adv-x="849" d="M115 20v553l80 78l75 -78v-387zM115 776v543l155 -156v-387l-77 -80zM137 1348h553l76 -78l-76 -78h-387zM147 0l152 156h385l82 -78l-82 -78h-537zM219 678l80 76h385l86 -78l-86 -78h-385z" />
<glyph unicode="f" horiz-adv-x="841" d="M123 84v489l78 78l78 -78v-489l-80 -86zM123 776v543l156 -156v-387l-80 -80zM143 1348h553l76 -78l-76 -78h-387zM225 678l80 76h385l86 -78l-86 -78h-385z" />
<glyph unicode="g" horiz-adv-x="950" d="M109 186v387l75 78l80 -78v-387l-78 -86zM109 776v387l75 86l80 -86v-387l-78 -80zM215 78l82 78h385l76 -76l-76 -80h-385zM215 1270l76 78h463l82 -76l-82 -80h-463zM711 186v387l75 78l80 -78v-387l-78 -86z" />
<glyph unicode="h" horiz-adv-x="974" d="M106 84v489l78 78l78 -78v-489l-78 -86zM106 782v488l76 80l80 -80v-488l-78 -86zM209 678l80 76h387l86 -78l-86 -78h-387zM709 84v489l77 78l78 -78v-489l-80 -86zM709 782v488l75 80l80 -80v-488l-78 -86z" />
<glyph unicode="i" horiz-adv-x="389" d="M113 84v487l80 80l75 -80v-487l-78 -86zM113 780v490l77 80l78 -80v-490l-75 -86z" />
<glyph unicode="j" horiz-adv-x="942" d="M80 184v387l80 80l76 -80v-387l-78 -86zM188 78l76 78h385l82 -80l-82 -76h-385zM682 184v387l80 80l76 -80v-387l-78 -86zM686 780v490l76 80l80 -80v-490l-78 -86z" />
<glyph unicode="k" horiz-adv-x="927" d="M106 84v487l80 80l78 -80v-487l-80 -86zM106 780v490l78 80l80 -80v-490l-78 -86zM330 805l407 532l111 19l14 -111l-407 -532l-115 -23zM334 549l8 115l115 -21l411 -530l-12 -109l-111 14z" />
<glyph unicode="l" horiz-adv-x="796" d="M102 20v551l78 80l78 -80v-387zM102 780v490l76 80l80 -80v-490l-78 -86zM135 0l152 156h385l82 -80l-82 -76h-537z" />
<glyph unicode="m" d="M98 776v385l80 86l76 -86v-385l-78 -80zM100 84v487l78 80l78 -80v-487l-80 -86zM205 1270l82 78h387l74 -78l-74 -78h-387zM399 758v387h156v-387l-78 -80zM700 84v487l80 80l76 -80v-487l-78 -86zM700 776v385l78 86l78 -86v-385l-78 -80z" />
<glyph unicode="n" horiz-adv-x="966" d="M102 84v487l78 80l78 -80v-487l-78 -86zM102 780v490l76 80l80 -80v-490l-78 -86zM289 1174l37 106l102 -39l234 -498l-35 -112l-107 45zM705 84v487l77 80l78 -80v-487l-80 -86zM705 780v490l75 80l80 -80v-490l-78 -86z" />
<glyph unicode="o" d="M96 184v387l78 80l78 -80v-387l-80 -86zM96 776v385l78 86l78 -86v-385l-80 -80zM203 78l76 78h387l82 -80l-82 -76h-387zM203 1270l82 78h385l75 -78l-75 -78h-385zM696 184v387l80 80l76 -80v-387l-78 -86zM696 776v385l80 86l76 -86v-385l-78 -80z" />
<glyph unicode="p" horiz-adv-x="925" d="M111 84v487l77 80l78 -80v-487l-80 -86zM111 776v541l79 -70l76 -86v-385l-78 -80zM133 1348h553l76 -78l-76 -78h-387l-82 78zM215 676l80 78h385l86 -80l-86 -76h-385zM713 776v385l80 86l75 -86v-385l-77 -80z" />
<glyph unicode="q" horiz-adv-x="944" d="M94 184v387l78 80l78 -80v-387l-80 -86zM94 776v385l78 86l78 -86v-385l-80 -80zM201 78l75 78h388l81 -80l-81 -76h-388zM201 1270l82 78h385l75 -78l-75 -78h-385zM395 201v387l78 80l78 -80v-387h-156zM694 184v387l80 80l76 -80v-387l-78 -86zM694 776v385l80 86 l76 -86v-385l-78 -80z" />
<glyph unicode="r" horiz-adv-x="927" d="M96 84v487l80 80l78 -80v-487l-80 -86zM98 776v541l156 -156v-385l-78 -80zM121 1348h553l76 -78l-76 -78h-387zM203 676l80 78h385l86 -80l-86 -76h-385zM295 442v113l111 -2l430 -428l4 -117l-115 8zM700 776v385l78 86l78 -86v-385l-78 -80z" />
<glyph unicode="s" horiz-adv-x="913" d="M74 776v385l78 86l77 -86v-385l-75 -80zM104 76l82 80h463l76 -78l-76 -78h-463zM178 670l80 80h385l86 -78l-86 -78h-385zM182 1270l76 78h465l82 -78l-82 -78h-465zM676 184v387l78 80l77 -80v-387l-75 -86z" />
<glyph unicode="t" horiz-adv-x="794" d="M18 1274l80 80h590l86 -78l-86 -78h-590zM309 84v487l80 80l76 -80v-487l-78 -86zM309 766v387h156v-387l-76 -80z" />
<glyph unicode="u" d="M100 182v387l80 80l76 -80v-387l-78 -86zM104 772v490l78 86l78 -86v-490l-80 -78zM209 76l76 78h385l82 -80l-82 -76h-385zM702 182v387l80 80l76 -80v-387l-78 -86zM707 772v490l77 86l78 -86v-490l-80 -78z" />
<glyph unicode="v" horiz-adv-x="927" d="M98 84v487l78 80l78 -80v-487l-80 -86zM98 772v490l80 86l76 -86v-490l-78 -78zM297 94l2 115l395 428l113 4l2 -111l-395 -426zM700 772v490l80 86l76 -86v-490l-78 -78z" />
<glyph unicode="w" horiz-adv-x="972" d="M100 774v488l80 86l76 -86v-488l-78 -80zM102 182v387l78 80l78 -80v-387l-80 -86zM209 76l76 78h387l82 -80l-82 -76h-387zM401 201v387l80 80l76 -80v-387h-156zM702 182v387l80 80l76 -80v-387l-78 -86zM702 774v488l80 86l76 -86v-488l-78 -80z" />
<glyph unicode="x" horiz-adv-x="884" d="M70 102l45 -102l102 51l189 508l-48 98l-100 -47zM70 1257l47 99l100 -47l189 -500l-46 -102l-102 53zM479 553l189 -506l100 -47l47 98l-188 506l-103 53zM479 805l47 -98l99 47l190 499l-45 103l-102 -53z" />
<glyph unicode="y" horiz-adv-x="933" d="M86 774l78 -80l78 80v488l-78 86l-78 -86v-488zM127 78l76 -78h450l82 76l-82 80h-450zM188 676l78 -78h387l86 76l-86 80h-387zM686 186l78 -86l78 86v385l-78 80l-78 -80v-385zM688 774v488l78 86l78 -86v-488l-80 -80z" />
<glyph unicode="z" horiz-adv-x="847" d="M45 78l80 -78h588l86 78l-86 78h-588zM45 1276l80 78h588l86 -78l-86 -78h-588zM109 307l28 -112l109 38l172 320l-31 106l-106 -32zM373 803l28 -111l109 39l172 320l-31 106l-106 -35z" />
<glyph unicode="{" horiz-adv-x="454" d="M57 119l47 -105l103 58l151 463l-47 100l-100 -51zM57 1221l154 -465l100 -58l47 107l-151 465l-101 51zM102 -35l33 -104l160 -86l113 26l-39 109l-160 86zM102 1376l33 107l160 86l113 -29l-39 -108l-160 -86z" />
<glyph unicode="|" horiz-adv-x="841" d="M31 78l86 78h590l79 -76l-79 -80h-590zM45 1274l80 80h590l86 -78l-86 -78h-590zM336 766v387h156v-387l-76 -80zM340 201v387l76 80l80 -80v-387h-156z" />
<glyph unicode="}" horiz-adv-x="462" d="M53 -199l39 109l158 86l108 -31l-34 -104l-158 -86zM53 1540l113 29l158 -86l34 -107l-108 -30l-158 86zM102 537l45 106l103 -57l151 -465l-47 -98l-100 51zM102 807l152 465l102 57l45 -106l-151 -465l-100 -51z" />
<glyph unicode="~" horiz-adv-x="1048" d="M53 403l2 111l152 145l115 5l-7 -115l-151 -146h-111zM342 676l80 78h180l86 -80l-86 -76h-180zM719 674l4 112l149 146l117 4l-8 -117l-150 -145h-112z" />
<glyph unicode="&#xa2;" horiz-adv-x="788" d="M70 465v387l80 78l75 -78v-387l-78 -86zM174 956l78 76h387l86 -78l-86 -77h-387zM178 358l74 76h387l82 -78l-82 -77h-387zM365 41v195h155v-195l-80 -80zM365 1073v195l77 80l78 -80v-195h-155z" />
<glyph unicode="&#xad;" horiz-adv-x="630" d="M43 676l80 78h387l86 -80l-86 -76h-387z" />
<glyph unicode="&#xd7;" horiz-adv-x="690" d="M86 901l115 -6l116 -117v-112l-110 2l-117 116zM92 395l2 111l115 115l117 4l-9 -115l-112 -113zM356 629l115 -4l117 -117l-2 -111h-109l-115 117zM362 664v112l117 115l117 4l-6 -113l-117 -116z" />
<glyph unicode="&#x2000;" horiz-adv-x="830" />
<glyph unicode="&#x2001;" horiz-adv-x="1661" />
<glyph unicode="&#x2002;" horiz-adv-x="830" />
<glyph unicode="&#x2003;" horiz-adv-x="1661" />
<glyph unicode="&#x2004;" horiz-adv-x="553" />
<glyph unicode="&#x2005;" horiz-adv-x="415" />
<glyph unicode="&#x2006;" horiz-adv-x="276" />
<glyph unicode="&#x2007;" horiz-adv-x="276" />
<glyph unicode="&#x2008;" horiz-adv-x="207" />
<glyph unicode="&#x2009;" horiz-adv-x="332" />
<glyph unicode="&#x200a;" horiz-adv-x="92" />
<glyph unicode="&#x2010;" horiz-adv-x="630" d="M43 676l80 78h387l86 -80l-86 -76h-387z" />
<glyph unicode="&#x2011;" horiz-adv-x="630" d="M43 676l80 78h387l86 -80l-86 -76h-387z" />
<glyph unicode="&#x2012;" horiz-adv-x="630" d="M43 676l80 78h387l86 -80l-86 -76h-387z" />
<glyph unicode="&#x2013;" horiz-adv-x="1009" d="M43 676l80 78h751l87 -80l-87 -76h-751z" />
<glyph unicode="&#x2014;" horiz-adv-x="1261" d="M43 676l80 78h989l86 -80l-86 -76h-989z" />
<glyph unicode="&#x2018;" horiz-adv-x="364" d="M100 782v488l76 80l80 -80v-488l-78 -86z" />
<glyph unicode="&#x2019;" horiz-adv-x="370" d="M100 782v488l76 80l80 -80v-488l-78 -86z" />
<glyph unicode="&#x201c;" horiz-adv-x="686" d="M100 782v488l76 80l80 -80v-488l-78 -86zM418 782l80 -86l75 86v488l-77 80l-78 -80v-488z" />
<glyph unicode="&#x201d;" horiz-adv-x="686" d="M100 782v488l76 80l80 -80v-488l-78 -86zM418 782l80 -86l75 86v488l-77 80l-78 -80v-488z" />
<glyph unicode="&#x2022;" horiz-adv-x="395" d="M117 586v155h155v-155h-155z" />
<glyph unicode="&#x2026;" horiz-adv-x="942" d="M104 2v154h156v-154h-156zM393 2h154v154h-154v-154zM680 2h156v154h-156v-154z" />
<glyph unicode="&#x202f;" horiz-adv-x="332" />
<glyph unicode="&#x205f;" horiz-adv-x="415" />
<glyph unicode="&#x2122;" horiz-adv-x="714" d="M82 1327l29 27h202l29 -27l-29 -27h-202zM182 915l27 -28l27 28v168l-27 29l-27 -29v-168zM182 1151l27 -27l27 27v133h-54v-133zM373 915l26 -28l27 28v168l-27 29l-26 -29v-168zM373 1155l26 -29l27 29v133l-27 29l-26 -29v-133zM408 1325l28 -27h133l27 27l-27 27 h-133zM475 1149l27 -29l26 29v133h-53v-133zM580 915l26 -28l27 28v168l-27 29l-26 -29v-168zM580 1155l26 -29l27 29v133l-27 29l-26 -29v-133z" />
<glyph unicode="&#x25fc;" horiz-adv-x="1351" d="M0 0v1352h1352v-1352h-1352z" />
</font>
</defs>
</svg>
